<?xml version="1.0" encoding="utf-8"?>
<!-- Generator: Adobe Illustrator 16.0.0, SVG Export Plug-In . SVG Version: 6.00 Build 0)  -->
<!DOCTYPE svg PUBLIC "-//W3C//DTD SVG 1.1//EN" "http://www.w3.org/Graphics/SVG/1.1/DTD/svg11.dtd">
<svg version="1.1" xmlns="http://www.w3.org/2000/svg" xmlns:xlink="http://www.w3.org/1999/xlink" x="0px" y="0px"
	 width="387.667px" height="253.334px" viewBox="0 0 387.667 253.334" enable-background="new 0 0 387.667 253.334"
	 xml:space="preserve">
<g id="Layer_2">
	<g>
		<path fill="#444444" d="M387.333,213c0,22-18,40-40,40H40.668c-22,0-40-18-40-40V41c0-22,18-40,40-40h306.664c22,0,40,18,40,40
			V213z"/>
	</g>
</g>
<g id="Layer_3">
	<rect x="52.667" y="221.333" fill="#FFF7F0" width="280" height="4.666"/>
</g>
<g id="Layer_4">
	<rect x="71" y="101" fill="#05E3FF" width="28" height="120.334"/>
	<rect x="98.958" y="32" fill="#64F85D" width="28" height="189.333"/>
	<rect x="164.667" y="67.998" fill="#FF47A4" width="28" height="153.667"/>
	<rect x="192.625" y="160.331" fill="#FFF011" width="28" height="61.334"/>
	<rect x="258.334" y="83.333" fill="#FF47A4" width="28" height="137.667"/>
	<rect x="286.292" y="43.333" fill="#64F85D" width="28" height="177.667"/>
</g>
</svg>
