<?xml version="1.0" encoding="utf-8"?>
<!-- Generator: Adobe Illustrator 16.0.0, SVG Export Plug-In . SVG Version: 6.00 Build 0)  -->
<!DOCTYPE svg PUBLIC "-//W3C//DTD SVG 1.1//EN" "http://www.w3.org/Graphics/SVG/1.1/DTD/svg11.dtd">
<svg version="1.1" xmlns="http://www.w3.org/2000/svg" xmlns:xlink="http://www.w3.org/1999/xlink" x="0px" y="0px" width="389px"
	 height="253.664px" viewBox="0 0 389 253.664" enable-background="new 0 0 389 253.664" xml:space="preserve">
<g id="Layer_2">
	<g>
		<path fill="#444444" d="M388.333,212.997c0,22-18,40-40,40H41.668c-22,0-40-18-40-40v-172c0-22,18-40,40-40h306.664
			c22,0,40,18,40,40V212.997z"/>
	</g>
</g>
<g id="Layer_5">
	
		<rect x="54.734" y="107.396" transform="matrix(-0.9985 -0.0547 0.0547 -0.9985 195.0448 222.5464)" fill="#05E3FF" width="91.667" height="2.416"/>
	
		<rect x="53.135" y="172.737" transform="matrix(-0.9465 -0.3228 0.3228 -0.9465 140.2134 371.1411)" fill="#05E3FF" width="95.49" height="2.416"/>
	
		<rect x="55.751" y="178.455" transform="matrix(-0.9832 0.1824 -0.1824 -0.9832 234.7369 337.7313)" fill="#64F85D" width="92.166" height="2.417"/>
	
		<rect x="55.429" y="136.54" transform="matrix(-0.9821 0.1884 -0.1884 -0.9821 227.2989 253.8913)" fill="#FF47A4" width="92.308" height="2.416"/>
	
		<rect x="50.833" y="75.29" transform="matrix(-0.8853 -0.4651 0.4651 -0.8853 154.2954 191.0598)" fill="#FFF011" width="99.764" height="2.416"/>
	
		<rect x="145.013" y="120.965" transform="matrix(-0.9776 -0.2106 0.2106 -0.9776 356.5929 282.3177)" fill="#05E3FF" width="96.629" height="2.416"/>
	
		<rect x="141.633" y="150.563" transform="matrix(-0.918 0.3966 -0.3966 -0.918 430.6548 214.4828)" fill="#64F85D" width="103.034" height="2.416"/>
	
		<rect x="146.619" y="181.895" transform="matrix(-0.992 0.1261 -0.1261 -0.992 409.1796 340.3058)" fill="#05E3FF" width="94.399" height="2.417"/>
	
		<rect x="140.147" y="152.921" transform="matrix(-0.8856 -0.4644 0.4644 -0.8856 293.777 380.6073)" fill="#FF47A4" width="107.215" height="2.417"/>
	
		<rect x="144.98" y="89.289" transform="matrix(-0.9816 0.191 -0.191 -0.9816 400.8905 142.3425)" fill="#FFF011" width="97.207" height="2.416"/>
	
		<rect x="234.785" y="107.42" transform="matrix(-0.881 0.4731 -0.4731 -0.881 589.4991 68.9879)" fill="#05E3FF" width="102.578" height="2.417"/>
	
		<rect x="237.239" y="156.325" transform="matrix(-0.9188 0.3948 -0.3948 -0.9188 612.1733 189.1224)" fill="#05E3FF" width="98.788" height="2.416"/>
	
		<rect x="237.934" y="192.529" transform="matrix(-0.951 -0.3091 0.3091 -0.951 499.0378 466.5343)" fill="#FF47A4" width="97.081" height="2.416"/>
	
		<rect x="234.699" y="152.841" transform="matrix(-0.9017 -0.4323 0.4323 -0.9017 477.0102 416.5397)" fill="#64F85D" width="102.307" height="2.415"/>
	
		<rect x="239.281" y="95.259" transform="matrix(-0.9479 -0.3186 0.3186 -0.9479 528.3945 279.3651)" fill="#FFF011" width="95.53" height="2.416"/>
</g>
<g id="Layer_3">
	<rect x="53.667" y="221.33" fill="#FFF7F0" width="280" height="4.666"/>
	<rect x="53.663" y="32.809" fill="#FFF7F0" width="4.666" height="192.167"/>
	<rect x="328.955" y="32.83" fill="#FFF7F0" width="4.666" height="192.167"/>
	<rect x="238.402" y="32.834" fill="#FFF7F0" width="4.666" height="192.165"/>
	<rect x="143.442" y="32.854" fill="#FFF7F0" width="4.666" height="192.166"/>
</g>
</svg>
