<?xml version="1.0" encoding="utf-8"?>
<!-- Generator: Adobe Illustrator 16.0.0, SVG Export Plug-In . SVG Version: 6.00 Build 0)  -->
<!DOCTYPE svg PUBLIC "-//W3C//DTD SVG 1.1//EN" "http://www.w3.org/Graphics/SVG/1.1/DTD/svg11.dtd">
<svg version="1.1" xmlns="http://www.w3.org/2000/svg" xmlns:xlink="http://www.w3.org/1999/xlink" x="0px" y="0px"
	 width="388.25px" height="253.25px" viewBox="0 0 388.25 253.25" enable-background="new 0 0 388.25 253.25" xml:space="preserve">
<g id="Layer_2">
	<g>
		<path fill="#444444" d="M387.499,212.75c0,22-18,40-40,40H40.835c-22,0-40-18-40-40v-172c0-22,18-40,40-40h306.664
			c22,0,40,18,40,40V212.75z"/>
	</g>
</g>
<g id="Layer_6">
	<path fill="#05E3FF" d="M195.833,56.75c0,0-36.373-2.497-69.187,15.585S58.166,88.75,58.166,88.75v48.333
		c0,0,29.085,6.726,68.709-16.471c39.624-23.196,68.958-15.529,68.958-15.529V56.75z"/>
	<path fill="#64F85D" d="M195.166,143.75c0,0-47.962,2.002-67.981-2.999s-68.019-3.001-68.019-3.001v30.333
		c0,0,52.628-1.943,68.647,3.028s67.353,2.972,67.353,2.972V143.75z"/>
	<rect x="197.167" y="57.083" fill="#FF47A4" width="130.666" height="19"/>
	<path fill="#FF47A4" d="M196.417,89.25c0,0,52.633,1.244,65.604,2.691c9.479,1.058,64.396,2.642,64.396,2.642V81.917
		c0,0-51.63-0.909-64.898-2.663s-65.102-2.67-65.102-2.67V89.25z"/>
	<path fill="#05E3FF" d="M326.25,121.5c0,0-44.847-0.067-64.273-9.127c-20.227-9.433-64.31-9.13-64.31-9.13V90.568
		c0,0,43.009-2.053,64.098,9.101c20.735,10.967,64.485,9.156,64.485,9.156V121.5z"/>
	<path fill="#64F85D" d="M325.5,121.42c0,0-44.847,0.083-64.273,11.329c-20.227,11.709-64.31,11.333-64.31,11.333v15.734
		c0,0,43.009,2.548,64.098-11.298c20.735-13.613,64.485-11.366,64.485-11.366V121.42z"/>
	<path fill="#FFF011" d="M326.75,194.5c0,0-44.847-0.074-64.273-10.081c-20.227-10.419-64.31-10.085-64.31-10.085v-14
		c0,0,43.009-2.268,64.098,10.053C283,182.5,326.75,180.5,326.75,180.5V194.5z"/>
	<path fill="#05E3FF" d="M224.5,153.084"/>
</g>
<g id="Layer_3">
	<rect x="53.038" y="87.563" fill="#FFF7F0" width="7.582" height="82.166"/>
	<rect x="325.038" y="56.563" fill="#FFF7F0" width="7.582" height="20.5"/>
	<rect x="191.043" y="56.667" fill="#FFF7F0" width="7.582" height="48.5"/>
	<rect x="325.038" y="80.896" fill="#FFF7F0" width="7.582" height="14.5"/>
	<rect x="325.038" y="106.833" fill="#FFF7F0" width="7.582" height="31.167"/>
	<rect x="325.038" y="179.396" fill="#FFF7F0" width="7.582" height="16.418"/>
	<path fill="#FFF7F0" d="M59.166,90.083"/>
	<rect x="191.043" y="142.668" fill="#FFF7F0" width="7.582" height="33.166"/>
</g>
<g id="Layer_4">
</g>
</svg>
