<?xml version="1.0" encoding="utf-8"?>
<!-- Generator: Adobe Illustrator 16.0.0, SVG Export Plug-In . SVG Version: 6.00 Build 0)  -->
<!DOCTYPE svg PUBLIC "-//W3C//DTD SVG 1.1//EN" "http://www.w3.org/Graphics/SVG/1.1/DTD/svg11.dtd">
<svg version="1.1" xmlns="http://www.w3.org/2000/svg" xmlns:xlink="http://www.w3.org/1999/xlink" x="0px" y="0px"
	 width="721.656px" height="597.48px" viewBox="0 0 1721.656 2597.48" enable-background="new 0 0 1721.656 2597.48"
	 xml:space="preserve" id="lanet">
<g id="stockholm">
	<path id="stockholm_x5F_p_2_" fill-rule="evenodd" clip-rule="evenodd" fill="#2BB673" d="M842.727,1602.047
		c5.168,7.332,10.667,19.666,1,25.333c-21.333-3.667-16.333-6.667-32.667-20c4.194-2.133-21.629,9.149-45.3,8.998
		c-19.25-0.123-36.43-12.604-33.034-14.331l13-12.009c0,0,43-38.186,48.333-37.325
		C799.393,1553.573,842.727,1602.047,842.727,1602.047z"/>
	<path id="stockholm_x5F_p_1_" fill-rule="evenodd" clip-rule="evenodd" fill="#2BB673" d="M901.684,1766.508
		c-33.505-40.931-28.944-30.981-62.625-72.13c-6.917-10.917,2.666-17.917-14.333-27.667c-3-14.001-0.333-17.008-14-22.001
		c-11.114-2.388-28.333-16-63.666,0.993l-45.167,18.675c-4.365-0.029-13,4.25-21.5,5.665c-5.006,0.833-12.5,1.585-19,5.085
		c-6.346,0.404-6.889,9.573-13.25,9.5c-15.273,13.362-15.458,14.52-17.958,14.77c-6.784,0.679-6.208,5.212-4.042,23.48
		c18.75,2,19.528-3.646,35.326-18.528c7.367-6.94,17.942-5.326,26.59,1.693c14.112,11.449,10.745,16.884,25.667,27.334
		c35.333,11.536,26.518-7.848,68.85,27.702c15.517,4.55,26.06,9.299,38.067,17.799c6.083,5.333,26.922-15.168,41.75-11.75
		c18.5-1,23.166,8.667,31,13.75C899.559,1780.878,905.393,1773.628,901.684,1766.508z"/>
	<path id="stockholm_x5F_p" fill-rule="evenodd" clip-rule="evenodd" fill="#2BB673" d="M700.742,1572.772
		c-1.816-1.089-3.794-1.73-5.611-2.855c-2.065-1.279-3.676-3.087-5.413-4.766c-3.242-3.135-6.156-6.744-9.874-9.328
		c-4.774-3.317-14.341-10.13-15.267-16.646c-0.461-3.241,1.872-6.815,3.729-9.229c2.399-3.118,5.178-5.877,7.853-8.751
		c3.401-3.654,6.432-7.577,10.083-11.01c3.223-3.03,6.631-5.838,10.234-8.396c-4.481-6.893-7.039-11.521-10.084-16.413
		c-2.336-3.751-23.5,1-29-9.5c-13.837-26.416-22.434-35.18-30.25-31.913v43.716c-6.843,9.902-22.458,40.266-40.282,45.117
		c-10.176,2.771-19.251-15.31-24.468-24.92c-2-3.686-11.209,16.632-12.5,18.5c2.368,4.177,18.708,21.148,22.5,26.32
		c4.855,6.624,33.641,24.904,38.47,29.381c7.203,6.676,15.993,4.798,21.172,13.781c11.374,2.482,8.877,22.42,20.027,22.518
		c9.393,0.084,22.646,14.359,40.83,18.913c25,0,14.167-32.808,14.167-45.913C707.06,1586.144,701.378,1580.392,700.742,1572.772z"/>
</g>
<g id="upplands_väsby">
	<path id="upplands_väsby_x5F_p" fill-rule="evenodd" clip-rule="evenodd" fill="#2BB673" d="M665.727,1326.711
		c-3-3-20.361-12.333-28.333,3.334c-2.999,5.894-16.854-8.295-27.667,4c-4.714,5.36-7.522,12.393-12.667,15
		c-5.692-3.407-13.308,10.404-19,7c-3.405-4.954,7.299-27.716,3.616-33.763c-5.067-8.321-27.917-4.154-33.246-11.904
		c0-7.667,0.17-13.52,4.297-15.743c6.667-3.591,15.333-10.469,17-22.591c-17.535-23.219-40.265-88.306-12.667-77.148
		c19.334,3.815,38.693,22.857,50.405,24.81l79.262-5.662c10.197-1.096,8.892,29.106,42,58c6.079,26.912,6,22.591-4,33.098
		c-19.078,19.568-15.226,30.902-7.333,69.568c-5.621-3.84-26.113-3-22.667-10.333l-5.667-24.532"/>
</g>
<g id="värmdö">
	<path id="värmdö_x5F_p_7_" fill-rule="evenodd" clip-rule="evenodd" fill="#2BB673" d="M1073.893,1618.628
		c2-22.75-17.684-14.472-29.5-16.431c-15.5-2.569-23.384-14.524-32-8.569c-17.75,29-3.75,34.75-29.5,56.5
		c-8.75,6.25-43.055,11.507-41.082-3c0.588-4.297-1.849-44.5-1.849-51.242c5.681-12.508,27.431-9.758,36.431-34.691
		c14.772-9.145,61.314,3.434,78-2.692c1.756-1.064,44.211,3.208,45.75,3.876c20.234,8.802,18.711,14.215,32.25,28
		c12.5,20.75-37.5,63.25-23.25,82c5.25,11.75,16.076,2.25,33.25,1.5c33.168-1.444,59.793,47.896,93,47
		c13.141-0.351-9.177-39.581,1.5-33c31.513,19.424,127.494-50.779,113.172-15.307c-6.082,15.071-28.172,30.807-33.172,50.307
		c-12.427,17.158-14.004-7.903-37.25,17.5c-0.604,10.395-13.287,10.74-23.75,12.616c-0.75,5.384-10.25,21.384-18.75,28.634
		c-21.146,24.133-27.014,18.092-50.909,9.484c-7.591-2.734-16.654-27.808-21.091-29.984c-20.428-7.75-21.25,3-28-5.25
		c-4.858-11.333-50.765-74.116-63.75-73.5c-11.121,0.532-27.5,4-28.25-5.25c-0.562-6.933,1.75-2.25,6.25-7
		C1051.143,1634.378,1054.893,1622.128,1073.893,1618.628z"/>
	<path id="värmdö_x5F_p_6_" fill="#2BB673" d="M1298.393,1648.378c14-21,5.163-44.181,4-49c-3.5-14.5-16.5-14.227-36.104-23
		c-3.613-1.617-29.706-1.463-35.97-2.742c-0.26,2.667-5.669-11.942-0.927-20.258c9-7.333,65.643,3.59,57.5-2.316
		c0,0,13.247-11.837,4.667-15.662c-7.254-3.234-37.667-1.021-37.667-1.021c-77-28.828-65.61-73.179-72.11-78.245
		c-12.087-9.421-54.39-5.755-49.89,10.745c0.059,0.191,46.5,16.5,20,67c1.5,11-5.317,12.633-3,15.184
		c5.375,6.066,11,10.895,12,21.816c2.697,8.57-10.193,65.433-7.5,74c9.689,2.202,42.313,19.72,60.5,24
		C1238.893,1660.378,1294.471,1654.261,1298.393,1648.378z"/>
	<path id="värmdö_x5F_p_5_" fill-rule="evenodd" clip-rule="evenodd" fill="#2BB673" d="M1351.06,1853.379
		c-7.334-2.334,7.605-29.192,10.666-33c8-17.667-4.448-3.799,12-21.696c11.667-3.638-2.257,22.555,5.334,25.11
		c3,6.666,14.116-4.685,21-8.081c10-3.333,11.112-2.009,13.666,3.667c2.176,4.835-14.333,12.666-29.333,14.333L1351.06,1853.379z"/>
	<path id="värmdö_x5F_p_4_" fill-rule="evenodd" clip-rule="evenodd" fill="#2BB673" d="M1528.06,1387.045
		c-16.667,14.334-26.163,29.308-18.61,37.979c-0.461,3.812,4.943,16.355-9.579,40.125c-8.369,13.699,4.452,20.573,7.407,14.478
		c15.782-32.549,12.782-21.914,29.782-41.914c15.666-7,3.616-6.291,8.706-19.95c2.493-6.688,12.812-12.934,14.294-18.383
		c4.63-17.021-8.704-21.535-20.37-15.3L1528.06,1387.045z"/>
	<path id="värmdö_x5F_p_3_" fill-rule="evenodd" clip-rule="evenodd" fill="#2BB673" d="M1521.06,1617.047
		c-2.441-3.777-1.728-14.525,1.333-18.333c8-17.667-2.494-22.668,16.103-53.283c7.237-8.068,5.974-2.606,13.564-0.051
		c3,6.666-8.043,19.51-18.71,43.511c-4.928,9.384,7.71,18.155,10.71,24.822c2.176,4.835-0.867,6.921-6.534,8.922L1521.06,1617.047z"
		/>
	<path id="värmdö_x5F_p_2_" fill-rule="evenodd" clip-rule="evenodd" fill="#2BB673" d="M1562.393,1499.38
		c0.667-6.867-6.394-36.525-3.333-40.333c14.468-9.737,15.351-11.97,14.333-24.667c7.667-1,12.409-1.223,20,1.333
		c-2.333,24,1.667,14.334-15.667,30.667c-4.928,9.384,4.421,26.174,3,38c-0.961,7.998-8.379,4.564-12.573,2.139L1562.393,1499.38z"
		/>
	<path id="värmdö_x5F_p_1_" fill-rule="evenodd" clip-rule="evenodd" fill="#2BB673" d="M1391.393,1715.628
		c-5-5.5,4.129-26.135,7.189-29.942c8-17.667,22.862-16.41,39.311-34.308c7.237-8.068,9.659,8.694,17.25,11.25
		c3,6.666-0.5,9-10.5,17.75c-1.566,6.467-8.804,13.074-6.25,18.75c2.176,4.835-1.083,12.249-6.75,14.25L1391.393,1715.628z"/>
	<path id="värmdö_x5F_p" fill-rule="evenodd" clip-rule="evenodd" fill="#2BB673" d="M1395.726,1557.733
		c-1.222,12.009,8.334,49.312-3.666,56.645c-7.818,4.333-20.667,16.319-42.667,25.652c-10.675,4.528,2.119-22.652-1.117-54.331
		c-7.553-8.671-0.724-6.002-7.883-15.322c2.791-3.297-24.985-40.191-23-42.666c6.802-8.477,16-13.497,23.333-9
		c-2.441-3.777,3,11.666,10.786,13.41c10.881,9.068-0.105-20.017,20.561-3.679L1395.726,1557.733z"/>
</g>
<g id="sundbyberg">
	<path id="sundbyberg_x5F_p" fill-rule="evenodd" clip-rule="evenodd" fill="#2BB673" d="M691.401,1517.95
		c-3.079,3.008-5.716,6.338-8.613,9.501c-2.573,2.809-5.351,5.449-7.728,8.433c-2.065,2.593-2.437,0.831-1.333,4.418
		c1.072,3.484-0.647,1.233,2.215,3.21c2.587,1.787,5.315,3.399,7.799,5.333c3.368,2.623,6.187,6.062,9.252,9.035
		c1.804,1.75,3.476,3.584,5.819,4.617c1.312,0.578,2.566,1.146,3.771,1.848c2.977-3.465,1.656-2.88,4.311-6.611
		c6.303-8.861,5.392-23.406,2.167-33.355c-2.612-8.061-3.166-9.438-6.93-15.327C698.334,1511.736,694.727,1514.701,691.401,1517.95z
		"/>
</g>
<g id="solna">
	<path id="solna_x5F_p" fill-rule="evenodd" clip-rule="evenodd" fill="#2BB673" d="M724.418,1537.032
		c2.723,3.32-18.025-32.84-10.358-30.654c13-8.333,43.333,19.667,52.783,25.333c3.333,13.833-5.45,39.334-11.783,38.667
		c-5.333,3.654-18.667,20.429-33.167,16.773c-6.287-1.589-8.167-1.773-12.833-14.577
		C717.79,1559.411,725.06,1544.378,724.418,1537.032z"/>
</g>
<g id="vaxholm">
	<path id="vaxholm_x5F_p_1_" fill="#2BB673" d="M967.143,1483.378c7.75-18.5-0.528-41.688-8.417-44.861
		c-7.688-3.094-32.583,18.861-38.833,17.861c-20.88-3.341-27.25-5.5-33.833-5.344c-8.167,10.094-3.08,35.094-1.167,44.594
		c1.261,6.263,11.188,4.75,19.938,5.75c12.25,6.75-12.758-10.5,56.062,2.75c4.042,0.778,32.25-5.5,35.75-17.25
		C990.643,1487.378,965.331,1487.705,967.143,1483.378z"/>
	<path id="vaxholm_x5F_p" fill="#2BB673" d="M1046.747,1422.29c-13.578-12.527-18.743-17.396-24.795-19.064
		c0,0-6.214,3.771-9.809,14.652c-1.567,4.745-4.864,12.211-7.5,18.25c3.132,8.186,2.67,13,12.099,11.295
		c4.683-0.847,21.399-15.453,23.532-16.625C1045.55,1429.445,1053.277,1428.313,1046.747,1422.29z"/>
</g>
<g id="nacka">
	<path id="nacka_x5F_p" fill-rule="evenodd" clip-rule="evenodd" fill="#2BB673" d="M830.143,1648.878
		c36-0.25,66.292-22.933,80-32.5c10,24.5-7.32,37.564,11,58.25c-0.474,1.791,57.744-0.404,59.75,0.25
		c25.528,8.333,1.55,36.363,55.217,39.699c1.786,11.301,3.117,9.799-1.967,12.301c-12.063,5.695-43.5-26.75-65.25-9
		c-5.358,1.004-2.416,16.569-6,15.5c-14.25-4.25-22,1-37.842,10.903c-9.506,2.197-17.497,12.597-23.158,7.157
		c-27.5-31.338-13.272-13.501-42.5-49.061c-4.417-4.419-12.25-1-15.75-42l-13.5-2V1648.878z"/>
</g>
<g id="ekerö">
	<path id="ekerö_x5F_p_3_" fill-rule="evenodd" clip-rule="evenodd" fill="#2BB673" d="M501.06,1666.71
		c13.333,2.667,22.333-3,29.083-8.582c0-27.085-11.384-90.05-16.417-97.417c-8.23-12.054-13.081-20.401-20.667-33
		c-7.34-12.19-18.333,10.667-31.333,3c-6.333-8-10.333-10.743-6.833-38.833c7-8.333,22-2.835,18.167-6.834
		c-2.5-3.001-21.311-16.924-25.667-20.001c-5.765-4.073-14.196,2.498-23.333,5c-28.998-30.188-46.799-46.288-63.333-52
		c2.667,14.667-1.382,37.1,10,39c1.083,0.181,23.073,41.058,30.333,84.333c1.518,9.049,26.445,47.506,33.667,54.484
		c15.993,15.454-3.667,33.183,32,36.85C465.864,1633.541,501.914,1665.889,501.06,1666.71z"/>
	<path id="ekerö_x5F_p_2_" fill-rule="evenodd" clip-rule="evenodd" fill="#2BB673" d="M399.643,1668.878
		c-13.25-1.5-6.046-26.772-6.838-36.492c-1.266-15.541-5.798-33.512-10.412-47.508c-2.803-8.502-30.75-13-37.75-43.25
		c-1.25-20.5-8.75-23.75-23.5-16c-6.75,1.25-15.589-12.442-17.25-25.25c-1.361-10.5,2-49.397,49.75-39
		c0.983,34.46,39.5,94.75,49.5,143.75c3.333,16.33,0.631,22.445,5,33.75c4.062,10.511,14.354,6.276,26,12.75
		c16.969,9.433,39.29,27.09,53.691,35.25c32.503,18.411,45.192,4.207,57.309,3.5c6,6,44.302,19.333,35,30.75
		c-8.081,9.918-11,4-18.75,10.5c-4.087,3.428-34.59-13.289-39-12.75c-9.284-3.041-8.867-5.271-38.5-2.5l-69.75-46.25"/>
	<path id="ekerö_x5F_p_1_" fill-rule="evenodd" clip-rule="evenodd" fill="#2BB673" d="M557.726,1610.866
		c3.496-15.5,15.144-30.619,18.889-26.043c10.028,0.805,31.278,35.305,35.528,33.305c6.631-0.389,15,4.5,15,10.75
		c-11,6.5-15.665,51.888-30.75,38.478c-8.106-7.208-6.923-8.471-16.25-16.978C573.643,1635.378,552.559,1614.638,557.726,1610.866z"
		/>
	<path id="ekerö_x5F_p" fill-rule="evenodd" clip-rule="evenodd" fill="#2BB673" d="M244.393,1526.712
		c3.496-15.5-0.234-50.139,3.511-45.562c21.489-24.104,41.68,37.229,41.156,42.896c0,8,18.333,27.75,18.333,34
		c-14.667,6.667,4.333,64.335-13,50.43c-41.333-10.762-17.006-41.923-26.333-50.43
		C266.105,1553.534,242.68,1527.997,244.393,1526.712z"/>
</g>
<g id="lidingö">
	<path id="lidingö_x5F_p" fill-rule="evenodd" clip-rule="evenodd" fill="#2BB673" d="M896.893,1533.128
		c14,14,37.592-2.771,62.75,2.5c10.75-2.75,5.604,5.18-7.25,14.032c-4.875,3.356-23.407,3.941-27.75,8.073l9.75,10.895
		c-1.25,3.946-9.619,12.454-11.869,11.704l-9.381,5.847c-22.698,2.25-36.791-0.062-44.008-0.408
		c-5.492-2.643-17.397-27.584-17.742-37.143c-1-27.75-20.886-11.5-20.883-33c0-1.812,17.418-2.415,32.383,3.5
		c15.41,6.091,22.255,13.727,22.5,11.75"/>
</g>
<g id="tyresö">
	<path id="tyresö_x5F_p" fill-rule="evenodd" clip-rule="evenodd" fill="#2BB673" d="M1076.393,1801.228
		c-21,4.482-52.058-47.634-65.716-51.383c-15.098-4.143-42.034-3.503-59.054-4.886c-12.564-1.021-22.806,15.46-31.646,17.42
		c-3.407,0.756-2.258,10.494-4.588,13.246c-8.879,10.482-6.501,12.251-15.706,23.752c-3.305,11.838-2.305,10.838,4.042,18
		c12.333-3.106,18.667-16.516,52-12.666c21.355,14.046,40.032,25.088,54.951,49.334c15.382,25,29.334,24.789,42.581,40.493
		c16.494-2.065,31.801-8.827,21.801-13.161c-15.153-17.865,39.24-42.911,23.334-61.667L1076.393,1801.228z"/>
</g>
<g id="huddinge">
	<path id="huddinge_x5F_p" fill-rule="evenodd" clip-rule="evenodd" fill="#2BB673" d="M749.143,1751.438
		c-39.5-3.561-44.25-8.798-63.25-35.811c-3.738-2.366-15.75-7.16-22-1.519c-1.5,9.858-9.831-1.062-13.499,14.27
		c0.912,6.961-24.703-2.575-22,5.334c2.983,8.73-1.204,31.496,3.333,41c6.866,14.384,27.551,15.918,39,24.001
		c10.416,7.354-2.834,37.164,14,55c10.722,11.36,20.098,7.188,25.333,17.002c11.138,20.881-3.283,46.252,20.333,50.912
		c20.533-0.839,21.5,17.5,29,18.751c15.52,2.588,39.5-16.251,53.75-18.501c4.5,0.5,5.347-13.16,10.5-25.5
		c-0.007-9.826-6.422-26.449,2.25-30.5c19-13.25,43.776-27.277,66-38.539c-2-15.711-1.5-34.461-19.736-50.055
		c-6.162,0-14.014-0.906-25.264,4.427c-8.331,3.949-19.377,7.5-24,7.917c-7.381-0.379-27.25-10.75-41.25-16.75L749.143,1751.438z"/>
</g>
<g id="salem">
	<path id="salem_x5F_p" fill-rule="evenodd" clip-rule="evenodd" fill="#2BB673" d="M458.727,1725.708
		c-12-7.667-4.925-6.337-32-15.771c-6.269,0-7.742,7.586-11.164,11.908c-4.546-3.064-29.985-5.479-45.092-1.47
		c-9.744,10.333,5.074,34.893,17.196,41.828c9.667-1.667,25.394-6.496,33.06-2.162c9.225-2.22,8,25.667,10.153,30.76
		c2.686,17.499-21.588-3.4-18.699,12.242c2.232,12.099,16.524,10.972,27.546,7.666c6.669-3.665,20,33.333,32,45.334
		c8.003,8.004,0,32.001,7,40.001c4.797,5.483,46.333-13.667,52-16.334c5.426-2.554,0-16-3.454-21.114
		c-8.747-19.403-11.062-36.926-20.88-66.22c-3.79-11.308-21.734-21.768-28-35.666L458.727,1725.708z"/>
</g>
<g id="haninge">
	<path id="haninge_x5F_p_1_" fill-rule="evenodd" clip-rule="evenodd" fill="#2BB673" d="M942.491,1812.64
		c11.152,1.631,42.902,25.738,50.402,36.488c9.894,14.182,36.114,41.123,49,54.25c16.626,16.936,37.25-5.75,47-8.5
		c9.5-4.75,9.75,14,53.25,3.75c5.653-1.332,0.804,14.816-3.25,21.25c-5.277,8.375-13,28.25-27.5,34c-9.5,4.25-15.49-18.971-23.5-13
		c-13.75,10.25-10.811,15.054-27.25,22.5c-13.728,6.219-33.682,7.201-35.75,8c-23.166,8.94-27.5,16.763-35.75,38
		c-2.75,9.75,35.063-0.496,36.274,11.028c-1.274,26.222-36.931,20.315-52.774,25.222c-26.723,15.893-30.25,35.08-39,26.5
		c-12.25-9.5,14.072-10.845,20.072-30.095c8-13-2.322-18.155,2.928-25.405c25.25,6.5,32.75-26.5,16.75-34.25
		c-5.272-2.554-39.5,3.25-45.25,13.25c-2.662,4.629,6.466,27.947,3,32.25c-7.25,9-55,22.5-60.75,35.5c-1.947,4.402-43.75-6.25-39,42
		c0.45,4.574-18-8.25-40,5.5c-27.677,17.299-10.206,37.114-22,44c-3.307,0.47-10.464-24.486-16.25-27.5
		c-6.25-8-26.5-7.75-30.5-12.25c-15-5.5-13.555-18.621-14.555-31.041c-0.306-3.788,20.88-35.155,22.055-39.459
		c4.783-17.534-9.679-28.484-7.25-46.5c1-7.416-17.901-9.145-36.75-1.75c-19-10-5.75-9.5-15.75-27c8.25-16,36.5-20.25,50.929-39.385
		c1.565-2.075,13.869,8.236,16.812,8.633c3.755,0.509,17.591,9.977,20.759,12.002c29.5,1,25.032-3.171,56.25-15.25
		c4.066-1.574,9.457-3.365,11.723-7.64c1.697-3.196,3.836-11.44,3.277-15.11c24.75-21.25-15.24-32.91,11.103-43.584
		C866.393,1855.128,916.042,1827,942.491,1812.64z"/>
	<path id="haninge_x5F_p" fill-rule="evenodd" clip-rule="evenodd" fill="#2BB673" d="M1120.059,2174.433
		c-39.666-30.054-14,2.279-42.333-7.054c-11.013-3.628-10.777-14.5-9.667-23.667c-7.552-8.671,25.493-22.347,18.334-31.667
		c2.791-3.297-20.026-6.226-18-8.667c13-15.666,23-22.17,28.333-36c-2.44-3.777-12.061-8.525-9-12.333
		c36.481-2.833,49.33-30.549,80.667-65.481c7.237-8.068,9.743,17.259,17.333,19.814c5.339,25.606-7.667,17.667-25.333,39.667
		c-4.928,9.384,0.638,7.248-3.992,24.269c-1.392,5.116-17.75,21.108-20.342,28.065
		C1130.968,2115.038,1141.059,2173.045,1120.059,2174.433z"/>
</g>
<g id="botkyrka">
	<path id="botkyrka_x5F_p" fill-rule="evenodd" clip-rule="evenodd" fill="#2BB673" d="M544.727,1877.374
		c-11.7,11-29.333,19.652-43,25.667c-6.597,2.903-0.833,30.145-3.667,36.671c-52.333,30.333-28.667,35.333-33,91.333
		c-1.781,4.3-6.688,62.133-5,65.667c17.667,10,37-2.333,39-4.333c3.667-35.334-8.714-30.415,2.667-65.667
		c4-8.667,10.333-17.889,34.667-21.579c5.523,0.148-0.127,38.329,3.667,34.912c16.386-14.773,75.239,14.097,91.333-1.666
		c5.469-6.8,16.424-11.736,13.913-20.073c-7.667-25.456,10.753-30.593,12.753-34.26c14.666-3.337,1.25-11.232,7.464-24.095
		c7.203-14.908,36.076-25.358,46.536-34.575c0-5.667-10.24-39.562-15-48c-8.103-14.363-16.252-7.126-24.333-18.669
		c-9.333-13.333-7.875-46.116-11.001-49.666c-4.496-5.106-24.89-16.314-29.445-21.156c-9.633-10.24-7.777,13.27-17.221,2.49
		c-11.878-13.558-8.333-21.334-21.588-38.039c-28.412-2.295-59.112-0.646-93.078,3.371c-8.251,11.43,9.219,21.38,18.667,34.668
		c4.604,6.475,3.596,34.784,6.434,42.212c4.044,10.585,6.861,18.702,11.9,30.12L544.727,1877.374z"/>
</g>
<g id="nynäshamn">
	<path id="nynäshamn_x5F_p_2_" fill-rule="evenodd" clip-rule="evenodd" fill="#2BB673" d="M663.393,1990.712
		c9.491,1.333,10.122,18.262,17.333,17c8.869-1.551,22.357-10.98,29.667-7c-2.252,7.693,7.335,25.933,8,36.666
		c0.629,10.155-16.499,31.335-19.667,40.668c-3.61,10.638,1.635,15.769,0.166,22.352c0.667,5.502,1.009,4.461,2.668,7.147
		c1.269,2.055,0.833,3.002,12.5,14.833c0.589,1.56,9.083,4.583,14.333,5.833c5,3.333,13.349-13.143,15.666,33.83
		c0.396,7.951,14,52.001,3.333,53.001c-5.667,3.333-5.333-51.333-21-15.333c-5.333,25.666-7.333,47.667-16.667,62.001
		c0.546,5.903,1.333,97.68,1.333,106.335c-14.613,3.064-37.333,35.666-46.261,41.17c-2.596-1.5-4.739,30.831-9.071,35.166
		c-2.674,2.675-23.556,37.804-22.952,34.026c-8.765,20.333-8.307,56.764-18.382,71.973c-18.439,9.115-58.289,22.274-48.334,9
		c9-12,27.334-42.666,31.334-64.668c-8.334-18-19.334-78.666-71.333-126.001c-1.735-1.58,9-85.531,2-97.666
		c-7.633-1.005-2.924-19.005-4-65.332c-0.2-8.608-9.468-31.468-10.667-43.001c-0.832-8-15.459-33.788,2.333-52
		c6.52-6.673,15.333-12,13.333-16c-5-7.666-3.597-30.566-1.333-36.667c-0.667-10,27.098-12.885,49.667-10.999
		c9.431,0.788,49.086,15.596,59.962-1.973c4.333-7,10.852-12.446,13.372-15.361C660.393,2018.379,635.393,2001.046,663.393,1990.712
		z"/>
	<path id="nynäshamn_x5F_p_1_" fill-rule="evenodd" clip-rule="evenodd" fill="#2BB673" d="M882.643,2240.878
		c-1,10.25-13.306,14.801-19.25,12.5c-7.75-3-15.115-35.304-19.25-32.5c-1.781-0.617-22.257,30.922-23,30.25
		c-22.039,36.667-15.5-2.5-13-22.75c8.081-18.058,9.854-7.335,20.25-24.25c2.09-3.401-3.217-39.163,1.25-39.5
		c26.5-2,19.585-1.923,42.223-2.632c4.257-9.539,42.361-13.785,59.277-8.618c-4.167,13.333-8.25,9.5-28,13.75
		c-4,15.75-5.25,20.5-6.5,32c-26.75,2.25-28.334,7.749-27.75,12.25C864.859,2201.091,888.893,2252.878,882.643,2240.878z"/>
	<path id="nynäshamn_x5F_p" fill-rule="evenodd" clip-rule="evenodd" fill="#2BB673" d="M1011.726,2304.043
		c12.333,17.667,21.465,4.095,16,19.666c-0.619,1.763-2.983,6.999-16,10c-13.017,3.002-27.42-1.897-28.734-0.666
		c-11.029,10.327-17.116,20.303-23.599,21.666c-26.166,5.503-20.5-17.33-31.333-22.497c-4.8-2.289-19.167,18-27.833,18.833
		c-5.86,0.563-4.833-2.331-4.833-7.833c17.028-23.461,78.833-55.667,98.666-77.999c3.688-4.152,25.333,20.896,71-32.504
		c5.766-6.742,22.333,10.667-5.333,29C1038.804,2275.573,999.059,2283.376,1011.726,2304.043z"/>
</g>
<g id="södertälje">
	<path id="södertälje_x5F_p" fill-rule="evenodd" clip-rule="evenodd" fill="#2BB673" d="M148.06,2221.378
		c-14-20-25.06-35.088-41.357-57.76c-13.192-18.35-9.894-7.586-13.31-28.24c3.333-23.333-0.959-68.665,4.667-90
		c4.902-18.593-0.883-40.523,4.54-60.395c48.126-0.272,90.152,34.303,145.427,25.617c39.393,0.019,9.07-34.175,24.689-63.708
		c16.937-32.019,74.401-63.371,68.401-90.704c-4.722,1.437-22.024-35.884-24.953-47.577c-7.333,0.333-48.14,14.157-52.771,14.431
		c-17,1.003-35.295-24.383-59.894-36.397c-13.107-14.93-16.5-36.846-32.105-52.052c-5.474-5.334-8.651-9.586-8.001-32.316
		c4.334-16.564-8.029-36.185-7.666-48.897c0.667-23.333,33.333,21.667,48.667,23.334c30.667,5.666,22.333,31.666,43.667,35.999
		c3.961,0.136,17.63,6.945,21.999,9.331c3.668,2.003,7.668,1.336,14.668,8.336c9.667,1,7.106,4.445,18.333,7.334
		c5.333,6,6.179,9.411,33.179,10.911c0.597,1.246,5.038,4.768,5.126,5.758c0.929,10.4,3.248,7.976,6.777,15.496
		c0.665,8.332,4.412,19.711,10,32.5c3.71,8.664,4.997,18.312,10,25.5c10.75,10.25,10.004,31.914,27.804,24.654
		c1.174-0.293,5.577-9.272,5.683-13.805c0.25-10.75-23.737-55.6-18.487-66.35c0.808-1.654,21.681-5.555,23.5-6
		c12.25-3,16.561,11.813,17.5,19.25c0.572,4.526-17.143,5.146-18.224,6.098c-6.25,5.5,0.764,20.821,5.974,26.402
		c3.5,3.75,21.671,4.696,25.25,3.75c2.886-0.763,24.736,41.815,27,41.25c2.621,3.992-0.669,20.134,0,29.5c0.5,7,10.25,9.5,18.75,12
		c8.699,2.559,3.401,22,2.75,27c-1.202,9.223-19.5,19.25-24,25.75c-1.575,2.275-11.95-7.674-13.423-20.75
		c-1.327-8.75-4.077-29.5-21.327-23.75c-14,1.5-3.25,45,13.5,53.75c0,0,2.75-2.25,0.995,28.753
		c1.293,1.762,1.188,13.988,1.255,18.247c0.5,12.5-26,0.25-25.75,6c1.415,32.53-0.25,25-24,41c-7.146,4.814-2.091,9.051-1,21
		c33.5,45.5,3.75,29.25-3,50.75c-0.5,24,1.111,59.819,1.75,65.25c2.5,21.25-4.5,20,9.63,31.102c20.5,6.5,23.87-43.102,31.04-90.381
		c0-20,19.539-12.27,19.08-12.971c3.645,21.546,18,203.5,11.6,210c-38.556,0.73-2.016-9.868-40.6-13c-22,2-3.5,82.5-29,43
		c0,0,4.749-35.988-5.5-45c-20.5-18.025-71.5-34-71.5-34c0.442,0.244-7.096-47.694-6.652-47.454
		c-0.431-0.253-143.251,3.377-143.681,3.121C164.016,2237.653,149.104,2225.772,148.06,2221.378z"/>
</g>
<g id="nykvarn">
	<path id="nykvarn_x5F_p" fill-rule="evenodd" clip-rule="evenodd" fill="#2BB673" d="M327.893,1854.878
		c1.355,28.5-30.056,45.803-55,69.5c-14.013,24.781-16,47.5-11,71.131c2.241,10.592-31.604,7.126-42.5,5.029
		c-36.228-6.971-64.656-18.674-101.021-24.918c-10.246-1.759-20.282-5.511-25.358-16.648c-13.862-30.415-15.12-26.594-29.12-52.594
		c-9.902-8.9-11.149-24.119-11-39c0.5-50-23.801-53.216-7.5-71.5c34.5-67,40.5-23,43-13c1.425,0.736,16.5-11,59.5-8.5
		c20.876,8.213,18.425,5.5,38.327,16.436c22.696,6.484,34.595,24.345,56.173,34.064c17.163,7.727,50.611,4.914,66-6.5
		C311.862,1815.805,321.836,1857.802,327.893,1854.878z"/>
</g>
<g id="österåker">
	<path id="österåker_x5F_p_1_" fill-rule="evenodd" clip-rule="evenodd" fill="#2BB673" d="M1282.713,1181.265
		c12.681-3.886,23.76-19.441,29.68-25.137c-7.5-6.75-53.532-3.206-74.615-13.75c-14.103-7.053-55.028,3.75-70.351,2.052
		c-5.333-0.591-4.188,16.403-10.284,49.133c-44.794,26-42.158-8.786-46.416-4.852c-26.005,24.042-13.111-6.535-39.334,17.26
		c-7.801,7.078,0.045,14.203-10,17.407c-27.212-4.668-37.999,32.665-84.892,43.538c-7.05,1.635-16.875,28.507-24.107,29.792
		c-30,5.333-28.667,16.333-44.667,21.99c-13.193-5.812-28.334-5.987-39.667-2.246c-11.535,8.285-14.333,23.257-6.667,26.59
		c9.727,16.905-4.207,26.427-7.667,41.667c-5.598,24.678,29.667-10,17.667,35.666c0.667,9,22.741-5.603,34.333-18
		c4.333,27.56,5.667,50.739,22.667,38c6-18-21-41.333,57.666-24.999c6.897,1.433,14.333-23.333,8-28c0,0-40-8.667-19-28
		c19.328-17.794,35.667,14.334,35.667,14.334c21-10.667,30.732-2.379,44.333,3.666c9,4,22.88,3.139,26-6.666
		c21.202-66.623,36.566-29.66,50.999-62c10-22.407,46.823-55.077,55-63.333l16.584-4.75"/>
	<path id="österåker_x5F_p" fill-rule="evenodd" clip-rule="evenodd" fill="#2BB673" d="M1330.727,1239.71
		c8-7.667,7.545-15.702,2.333-17.333c-8.983-2.812-11.663-28.189-20.667-31.333c-7.949,3.937-17.307,16.029-22.333,19.667
		c-14.567,10.542-18.319,10.041-25.964,14.534c-12.703,7.466-5.354,18.555-11.428,24.155c-23.334,3.333-19.941,24.978-26.016,41.978
		c6.407-1.333,12.09-3.055,19.74,10.333c1.795,3.142-6.672,17.81-14.666,24.666c-9.187,7.879-22.764-23.841-30.098-17.885
		c-14.751,11.98,2.733,30.864,2.431,39.552c-1.333,38.332,13.642,24.51,18.667,41.999c3.926,13.667-5.354,24.438,3.926,36
		c4.074,0,11.741-5.334,13.074-9.667c0.647-2.105,3.36-26.524,3.666-28.666c3-21,26.844-2.333,25.334-20.666
		c-1.874-22.753,0.729-22.4-2.51-48.345c-1.824-14.611,18.51-12.729,32.843-23.562c2.438-1.842,23.404-49.78,27-50.759"/>
</g>
<g id="täby">
	<path id="täby_x5F_p" fill="#2BB673" d="M738.893,1397.378c-4.829-0.409-5.539-10.688-11.5-18c1-36-5.5-20.896-5.5-56.5
		c8.461-4.481,14.432-18.532,23.536-18.532l65.297,4.366c3.485,2.886,6.844,9.738,9.667,13.166c1.961,2.389,11.207,7.87,14,7.834
		c25.75-0.333,7.119,33.516,8,56.562c1.5,39.221-23.5,22.895-26.5,63.281c-48.5,11.863-34-32.513-39-47.33L738.893,1397.378z"/>
</g>
<g id="sollentuna">
	<path id="sollentuna_x5F_p" fill-rule="evenodd" clip-rule="evenodd" fill="#2BB673" d="M628.393,1341.045
		c-28.667-5-6,17.667-56,29c1.44,10.291,15.333,18.333,21,27.333c5.555,6.334,32.41-3.16,24.41,40.84
		c8.733,2.295,15.947-12.093,20.714-10.84c5.454,1.522,22.376,35.5,42.376,45.207c9.587,4.653,24.842,22.399,28.167,23.293
		c33.333,8.963-2.742-60.204,19.871-52.659c16.962,5.659-16.93-42.386-10.93-58.388c3.708-11.732-11.739,6.367-25.108-8.884
		c-13.603-15.517-10.323-19.818-11.5-29.569l-30-17.666"/>
</g>
<g id="järfälla">
	<path id="järfälla_x5F_p" fill-rule="evenodd" clip-rule="evenodd" fill="#2BB673" d="M547.727,1319.699
		c2.423,1.189,14,4.679,22.333,9.013c3.333,34.999-9.667,37.895-11.667,50.999c-0.8,5.239,5.005,3.591,15,9.667
		c14.722,8.951,0,19.667,32.333,26.914c2.667-1-6.333,35.256,10.494,39.753c2.79,0.746,2.113,18.666-3.827,33.666
		c-6.247,15.773-21.947,24.67-24.561,27.622c-11.106,12.545-10.773-23.955-24.439-20.622c-11.15-0.098-24.667,21.334-27,15.667
		c-12-7.537-10.969-22.338-14-33.667c-2.56-9.566,12.833-47.304,14.667-67.333c9.979-14.441,9.667-13,13.401-28.363
		c0,0-3.829-9.971-5.282-14.304C543.727,1364.378,545.304,1318.51,547.727,1319.699z"/>
</g>
<g id="danderyd">
	<path id="danderyd_x5F_p" fill-rule="evenodd" clip-rule="evenodd" fill="#2BB673" d="M772.278,1457.628
		c-8.036,0.918-5.203-51.45-9.889-39.585c0,0-20.411,8.282-17.996,12.835c1.5,20.67-14.156,25.821-9.651,26.412
		c2.473,15.323-1.939,23.994-1.446,33.088c0.611,11.292,15.936,6.963,35.598,29c9.217,3.949,5.937,5.148,16.098,9.5
		c5.676-18.676,25.513-11.778,22.902-41.5c-1.63-18.566,13.378-24.48-6-25L772.278,1457.628z"/>
</g>
<g id="upplands-bro">
	<path id="upplands-bro_x5F_p" fill-rule="evenodd" clip-rule="evenodd" fill="#2BB673" d="M494.059,1367.044
		c-10.498,15.48,6.333,69.333-13.667,69.333c-45.667-10.333-20.667-30.259-36.333-54.665c-38.218-63-73.589-58.287-78.333-31
		c-1.333,7.667,17.286,36.38-1.333,31.333c-4.121-1.116-9.861-4.244-9.667-7.334c5-48-16.877-78.561-29-28.999
		c-11.119-7.375-6.667-3-18.333-16.667c-5.127-6.007-17.794-27.328-15-34c1.133-2.951,29-24,37-38.333
		c-0.097-1.773-0.236-26.227-0.333-28c-13.306-12.523,3.424-34.549-11.167-45.333c-37.5-26-24.82-31.57-25.833-58
		c-6.786-13.408,33.501-52.181,48.105-53.341c38.529-3.062,41.699,22.339,73.275,42.597c45.584,29.245,49.953,33.411,97.953,48.744
		c7.686,4.513,24.353,13.791,20.667,23.003c-0.591,1.479,2.528,20.465,2.499,22.092c-0.499,27.572,11.501,36.239,25.834,64.572
		c-7,11.122-11.333,12.667-17.667,22.667c-2.96,1.889-3.924,15.461-4.333,18.667c-2.301,18.077-1.507,29.666-1.507,66.333
		C519.393,1391.711,518.059,1328.712,494.059,1367.044z"/>
</g>
<g id="vallentuna">
	<path id="vallentuna_x5F_p" fill-rule="evenodd" clip-rule="evenodd" fill="#2BB673" d="M760.727,1293.302
		c-17.652,2.161-20.049-11.553-23.333-29.925c-3.576-19.999-31.792-22.667-31.769-54c0.002-3.831,28.983-15.323,29.622-18.946
		c5.404-30.629-0.52-48.791-0.52-104.387c30.667,4.667,42-3.333,63.333-8c5.517-13.751,9.06-2.659,7.333-23.917
		c-0.733-9.002-1.854-23.348,6.5-27.25c13.374-6.246,21.749-33.783,41.75-33.25c6.75,5.25,5.5,21.75,8.75,26.75
		c37.688-12.26,40,3.5,73.795-5.199c5.643,6.338,25.988-36.068,35.205-29.801c12.5,8.5,14.449,2.987,33-0.003
		c10.333-1.666,6.5,31.003,49,42.003c2.85,3.362,0.708,21.021,0,26c-3.343,23.482,3.002,29.396,8.5,45
		c4.5,11,6.269,31.57,18.974,36.341c20.67,7.764,30.785,47.625,9.86,51.326c-41.334,8-30.048,27.061-40,29.333
		c-30.812,4.579-45.467,32.108-60.597,34.948c-12.1,2.271-22.412-1.911-27.404,13.719c-0.288,0.897-3.608,10.439-16,20.667
		c-9.911,8.18-22.19,10.92-32.385,19.376c-13.216,10.961-16.335-0.278-24.281,0c-6.825-10.301-39.214,22.86-46,12.624
		c0,0-7.536,3.333-9.373-3.445c-7.224-5.599-13.809-10.696-20.394-15.799"/>
</g>
<g id="sigtuna">
	<path id="sigtuna_x5F_p" fill-rule="evenodd" clip-rule="evenodd" fill="#2BB673" d="M561.395,1186.381
		c-32.571-10.398-29.396-35.457-50-37.67c-40.333-4.333-79.748-35.087-87.333-39.333c-22.333-21.667-53.667-37.333-80.333-48.844
		c-4.474-2.862-7.292-11.686-3.559-14.1c32.559-21.056,48.226-29.723,41.892-62.056c30.315,0.362,15.381-0.608,43,0
		c3.109,0.596,5.351,6.345,7.333,10c10.667,19.667,25.893,2.863,28.333,11.333c0.818,2.844,2.195,7.862,4.48,10.281
		c-0.814,18.386,22.054,14.997,23.853,12.719c10-12.667,19.333-36.667,34.333-36.666c20.783,5.757,7.39,5.307,29.662,11.478
		c23.338-46.145,41.672-32.145,67.004-46.145c50.667-5.333,62.666-29,66.999-33.667c11.041-11.894,35.331-4.455,42.667-19.667
		c7.366-15.276,49-8.667,55.29-8.667c2.25,16.25,6.126,33.5,30.856,40.25c3.317,0.906-3.597,9.857-4.229,13.75
		c-1.415,8.697-2.521,3.401,1,11.5c2.5,5.75,10.25,8.25,23.75,23.75c1.75,5.25-14.506,26.49-21,28.5
		c-14.799,10.212-22.212,23.146-18.999,42.25c2.259,13.433-10.5,15.5-18,17c-8.667,2.667-11.333,2.667-16.333,2.667
		c-21.333,9.667-37.333-1-36.667,4.666c-2.314,11.938,1.827,76.632,1.333,88.667c-0.687,16.746-22.667,34.333-37.933,33.614
		c-16.932,0.319-83.517,6.598-87.733,2.719C592.727,1197.043,575.415,1188.731,561.395,1186.381z"/>
</g>
<g id="norrtälje">
	<path id="norrtälje_x5F_p_1_" fill-rule="evenodd" clip-rule="evenodd" fill="#2BB673" d="M1133.65,135.026
		c4.226-9.886,52.116,20.435,57.117,8.724c27.589,6.546,56.927,11.896,85.22,20.627c35.777,11.041,42.715-107.724,51.406-134
		c14.257-7.812,51.621,35.849,62,51c11.819,17.255-8.98,117.347,6,132c15.493,15.152,32.48,15.841,32,37
		c-1.33,58.745,22.012,92.766,33.916,149.455c1.486,7.087,7.782,13.111,11.608,19.767c36.812,63.993,90.476,126.778,159.476,161.778
		c28.054,11.095,42.351,17.982,38.95,48.142c-3.22,28.567-28.238,51.172-31.95,82.858c-18.583-14.114-7.303,6.584-25-6
		c-4.449-3.162-12.457-3.374-18-5c0.792,5.413-18.751,2.02-19,7c-2,40-10.161,74.041,11,80c31.672,9.678,49,22,81,25
		c1,21,11.578,54.534,12,77c0.234,12.608-15.404,17.678-27,20c-4.303,0.86-18.118,14.996-22,17c-27.086,13.986-59.516,4.506-88-6
		c-5.433-2.004,2.811-3.283,0,0c-33,8-49.279-2.819-74.837,6.547c-27.136,9.944-40.163,23.453-65.689,33.966
		c-19.181,22.049-21.474,30.487-26.224,54.258c4.75,30.229-3.917,32.896-3.917,37.563c-5.91,24.278-3.653,11.887-9.667,33.667
		c-1.275,4.62-7.47,15.287-11.666,18c-7.377,4.771-19.272,39.052-27.334,42.667c-13.52,2.229-14.178-3.088-24.666-4.667
		c-22,4-26.614-5.44-73.74-14c-12.634-2.295-48.272,2.485-66.465,3.667c-8.291,0.539-4.127,56.667-20.795,59.222
		c-13.784,2.113-19.333-7.222-22.666-23.222c-3.174,4.243-2.438-15.279-6.375-11.691c-1.535-1.306-2.859-1.869-2.97-2.607
		c-3.593-24.879-31.489-32.368-33.489-38.868c-2.288-7.434-0.5-17.5-5.5-25c-6.5-12.5-8.254-31.421-6.602-49.47
		c0.616-6.7-1.597-15.425-5.806-20.494c-14.593-4.536-31.593-23.536-41.26-38.205c-7.973-12.099-16.592-2.171-28.333-3
		c-8.599-0.607-16.048,2.454-20.811-3.124c-6.218-7.286-24.703,25.951-33.522,28.458c-31.667,9-22.333-3.333-57.667,4.667
		c-4.993,1.947-8.454-21.729-14.666-19.666c-0.49-10.065-13.15,2.651-13.667-8c-2.417,1.085-3.167-3.415-8.333-9
		c-10.762-9.819-24.011-13.053-19-24.667c12.54-29.051,14-14.667-9.667-24.667c-17.194-14.239-17.292-35.155-11.333-58
		c8.068-30.939,10.917-29.351,17.726-60.667c1.227-5.646,10.339-48.522,16.274-50.333c32.756-9.989,58.716-19.972,91.667-29.333
		c5.669-1.61,12.882-0.101,17-4c14.325-6.587,16-7.667,24.333-6.667c14.667-13.667,27.28-23.117,40.667-37.667
		c15.333-16.667,32.167-25.156,36-39c0.974-3.513-0.947-108.683,5.333-109.333c9.801-1.016-5.684-52.667,5.333-52.667
		c0-23.13,3.333-30.514,3.333-54.667c14.78-1.735,17.615-12.45,36.171-14.629c-35.352-30.821,2.788-4.89-32.171-35.371
		c14.338-11.761-29.976-28.714-16.479-39.745c19.715-16.115,44.746-11.068,63.479-28.255c6.965-6.39,20.673-95.191,23.116-104.512
		c4.044-15.419,5.261-31.579,7.669-47.426C1148.699,205.1,1147.102,197.606,1133.65,135.026z"/>
	<path id="norrtälje_x5F_p" fill-rule="evenodd" clip-rule="evenodd" fill="#2BB673" d="M1541.393,1011.378
		c7.237-8.068,6.667,13.333,44.524,16c5.338,25.606,4,43.333-9.857,35.333c-11.927-0.956-36.037-2.354-40.667,14.667
		c-1.391,5.116,2.927,22.376,0.333,29.333c-2.737,7.347-16.833,0.372-26.333,1c-30-14-72.667,52.969-96.667,50.682
		c-11.543-1.1,12.667-29.682,42.667-45.015c10.516-19.388,4.667-18.667,19.798-37.647c2.791-3.297,3.156-16.822,5.182-19.264
		c13-15.666,25.026-19.138,36.354-31.756L1541.393,1011.378z"/>
</g>
</svg>
